<svg xmlns="http://www.w3.org/2000/svg" width="1200" height="962" viewBox="0 0 1200 962" font-family="Helvetica">
<rect width="1200" height="962" fill="white"/>
<text x="600.0" y="42" font-size="21" font-weight="bold" text-anchor="middle" fill="#1F4E79">Entidades financieras</text>
<rect x="270" y="76" width="660" height="856" rx="8" fill="#FBFCFE" stroke="#1F4E79" stroke-width="1.6"/>
<text x="600.0" y="100" font-size="14" font-weight="bold" text-anchor="middle" fill="#1F4E79">Plataforma de Gestión de Deudas</text>
<line x1="142.0" y1="508.0" x2="312.0" y2="164.0" stroke="#1F2937" stroke-width="1.3"/>
<line x1="142.0" y1="508.0" x2="312.0" y2="252.0" stroke="#1F2937" stroke-width="1.3"/>
<line x1="142.0" y1="508.0" x2="312.0" y2="340.0" stroke="#1F2937" stroke-width="1.3"/>
<line x1="142.0" y1="508.0" x2="312.0" y2="428.0" stroke="#1F2937" stroke-width="1.3"/>
<line x1="142.0" y1="508.0" x2="312.0" y2="516.0" stroke="#1F2937" stroke-width="1.3"/>
<line x1="142.0" y1="508.0" x2="312.0" y2="604.0" stroke="#1F2937" stroke-width="1.3"/>
<line x1="142.0" y1="508.0" x2="312.0" y2="692.0" stroke="#1F2937" stroke-width="1.3"/>
<line x1="142.0" y1="508.0" x2="312.0" y2="780.0" stroke="#1F2937" stroke-width="1.3"/>
<line x1="142.0" y1="508.0" x2="312.0" y2="868.0" stroke="#1F2937" stroke-width="1.3"/>
<line x1="632.0" y1="604.0" x2="568.0" y2="604.0" stroke="#1F2937" stroke-width="1.3" stroke-dasharray="6,4"/>
<polyline points="577.7,598.8 568.0,604.0 577.7,609.2" fill="none" stroke="#1F2937" stroke-width="1.4"/>
<text x="600.0" y="594.0" font-size="12" font-style="italic" text-anchor="middle" fill="#4B5563">«extend»</text>
<line x1="632.0" y1="868.0" x2="568.0" y2="868.0" stroke="#1F2937" stroke-width="1.3" stroke-dasharray="6,4"/>
<polyline points="577.7,862.8 568.0,868.0 577.7,873.2" fill="none" stroke="#1F2937" stroke-width="1.4"/>
<text x="600.0" y="858.0" font-size="12" font-style="italic" text-anchor="middle" fill="#4B5563">«extend»</text>
<ellipse cx="440" cy="164.0" rx="128" ry="34" fill="#EAF2FB" stroke="#1F4E79" stroke-width="1.5"/>
<text x="440" y="152.0" text-anchor="middle" font-weight="bold" fill="#2E75B6" font-size="11">CU-09</text>
<text x="440" y="168.0" text-anchor="middle" fill="#1F2937" font-size="13">Listar y buscar</text>
<text x="440" y="184.0" text-anchor="middle" fill="#1F2937" font-size="13">entidades</text>
<ellipse cx="440" cy="252.0" rx="128" ry="34" fill="#EAF2FB" stroke="#1F4E79" stroke-width="1.5"/>
<text x="440" y="248.0" text-anchor="middle" font-weight="bold" fill="#2E75B6" font-size="11">CU-10</text>
<text x="440" y="264.0" text-anchor="middle" fill="#1F2937" font-size="13">Crear entidad</text>
<ellipse cx="440" cy="340.0" rx="128" ry="34" fill="#EAF2FB" stroke="#1F4E79" stroke-width="1.5"/>
<text x="440" y="336.0" text-anchor="middle" font-weight="bold" fill="#2E75B6" font-size="11">CU-11</text>
<text x="440" y="352.0" text-anchor="middle" fill="#1F2937" font-size="13">Renombrar entidad</text>
<ellipse cx="440" cy="428.0" rx="128" ry="34" fill="#EAF2FB" stroke="#1F4E79" stroke-width="1.5"/>
<text x="440" y="424.0" text-anchor="middle" font-weight="bold" fill="#2E75B6" font-size="11">CU-12</text>
<text x="440" y="440.0" text-anchor="middle" fill="#1F2937" font-size="13">Eliminar entidad</text>
<ellipse cx="440" cy="516.0" rx="128" ry="34" fill="#EAF2FB" stroke="#1F4E79" stroke-width="1.5"/>
<text x="440" y="504.0" text-anchor="middle" font-weight="bold" fill="#2E75B6" font-size="11">CU-13</text>
<text x="440" y="520.0" text-anchor="middle" fill="#1F2937" font-size="13">Marcar entidad como</text>
<text x="440" y="536.0" text-anchor="middle" fill="#1F2937" font-size="13">favorita</text>
<ellipse cx="440" cy="604.0" rx="128" ry="34" fill="#EAF2FB" stroke="#1F4E79" stroke-width="1.5"/>
<text x="440" y="600.0" text-anchor="middle" font-weight="bold" fill="#2E75B6" font-size="11">CU-14</text>
<text x="440" y="616.0" text-anchor="middle" fill="#1F2937" font-size="13">Ver detalle de entidad</text>
<ellipse cx="760" cy="604.0" rx="128" ry="34" fill="#F6F6F6" stroke="#1F4E79" stroke-width="1.5"/>
<text x="760" y="600.0" text-anchor="middle" fill="#1F2937" font-size="13">Filtrar por rango de</text>
<text x="760" y="616.0" text-anchor="middle" fill="#1F2937" font-size="13">fechas</text>
<ellipse cx="440" cy="692.0" rx="128" ry="34" fill="#EAF2FB" stroke="#1F4E79" stroke-width="1.5"/>
<text x="440" y="680.0" text-anchor="middle" font-weight="bold" fill="#2E75B6" font-size="11">CU-15</text>
<text x="440" y="696.0" text-anchor="middle" fill="#1F2937" font-size="13">Vincular usuario por</text>
<text x="440" y="712.0" text-anchor="middle" fill="#1F2937" font-size="13">email</text>
<ellipse cx="440" cy="780.0" rx="128" ry="34" fill="#EAF2FB" stroke="#1F4E79" stroke-width="1.5"/>
<text x="440" y="776.0" text-anchor="middle" font-weight="bold" fill="#2E75B6" font-size="11">CU-15</text>
<text x="440" y="792.0" text-anchor="middle" fill="#1F2937" font-size="13">Desvincular usuario</text>
<ellipse cx="440" cy="868.0" rx="128" ry="34" fill="#EAF2FB" stroke="#1F4E79" stroke-width="1.5"/>
<text x="440" y="864.0" text-anchor="middle" font-weight="bold" fill="#2E75B6" font-size="11">CU-16</text>
<text x="440" y="880.0" text-anchor="middle" fill="#1F2937" font-size="13">Ver gastos eliminados</text>
<ellipse cx="760" cy="868.0" rx="128" ry="34" fill="#F6F6F6" stroke="#1F4E79" stroke-width="1.5"/>
<text x="760" y="864.0" text-anchor="middle" fill="#1F2937" font-size="13">Restaurar gasto</text>
<text x="760" y="880.0" text-anchor="middle" fill="#1F2937" font-size="13">eliminado</text>
<circle cx="120" cy="486.0" r="11" stroke="#1F2937" stroke-width="2" fill="none" fill="white"/><line x1="120" y1="497.0" x2="120" y2="528.0" stroke="#1F2937" stroke-width="2" fill="none"/><line x1="100" y1="508.0" x2="140" y2="508.0" stroke="#1F2937" stroke-width="2" fill="none"/><line x1="120" y1="528.0" x2="105" y2="552.0" stroke="#1F2937" stroke-width="2" fill="none"/><line x1="120" y1="528.0" x2="135" y2="552.0" stroke="#1F2937" stroke-width="2" fill="none"/><text x="120" y="572.0" font-size="14" font-weight="bold" text-anchor="middle" fill="#1F2937">Usuario</text>
</svg>